<?xml version="1.0" encoding="UTF-8"?>
<svg xmlns="http://www.w3.org/2000/svg" xmlns:xlink="http://www.w3.org/1999/xlink" viewBox="0 0 50 50" version="1.1" fill="#000000"><g id="surface1" fill="#000000"><path style=" " d="M 35 2 C 30.601563 2 27 5.800781 27 10.402344 C 27 15 35 26 35 26 C 35 26 43 15 43 10.402344 C 43 5.800781 39.398438 2 35 2 Z M 24 6.101563 C 21.199219 6.800781 18.800781 10.601563 17.402344 16 L 24 16 Z M 19.800781 6.699219 C 14.5 8.097656 10 11.398438 7.101563 16 L 15.300781 16 C 16.300781 12 17.902344 8.800781 19.800781 6.699219 Z M 35 7 C 36.699219 7 38 8.300781 38 10 C 38 11.699219 36.699219 13 35 13 C 33.300781 13 32 11.699219 32 10 C 32 8.300781 33.300781 7 35 7 Z M 6.101563 18 C 4.898438 20.398438 4.199219 23.101563 4.101563 26 L 14.097656 26 C 14.097656 23.199219 14.402344 20.5 14.800781 18 Z M 16.902344 18 C 16.402344 20.5 16.101563 23.199219 16 26 L 24 26 L 24 18 Z M 26 18 L 26 26 L 32.5 26 C 31.300781 24.199219 29.199219 21.199219 27.5 18 Z M 42.402344 18 C 40.699219 21.199219 38.699219 24.199219 37.402344 26 L 45.902344 26 C 45.800781 23.101563 45.101563 20.398438 43.902344 18 Z M 4 28 C 4.101563 30.898438 4.800781 33.601563 6 36 L 14.800781 36 C 14.402344 33.5 14.101563 30.800781 14 28 Z M 16 28 C 16.101563 30.800781 16.402344 33.5 16.902344 36 L 24 36 L 24 28 Z M 26 28 L 26 36 L 33.097656 36 C 33.597656 33.5 33.898438 30.800781 34 28 Z M 36 28 C 35.898438 30.800781 35.699219 33.5 35.199219 36 L 44 36 C 45.199219 33.601563 45.898438 30.898438 46 28 Z M 7.101563 38 C 9.898438 42.601563 14.398438 45.902344 19.699219 47.300781 C 17.800781 45.199219 16.199219 42 15.199219 38 Z M 17.402344 38 C 18.800781 43.300781 21.199219 47.101563 24 47.902344 L 24 38 Z M 26 38 L 26 47.902344 C 28.800781 47.199219 31.199219 43.398438 32.597656 38 Z M 34.597656 38 C 33.699219 42 32.097656 45.199219 30.199219 47.300781 C 35.5 45.902344 40 42.5 42.800781 38 Z " fill="#000000"/></g></svg>
