<?xml version="1.0" encoding="UTF-8"?>
<svg width="61px" height="38px" viewBox="0 0 61 38" version="1.1" xmlns="http://www.w3.org/2000/svg" xmlns:xlink="http://www.w3.org/1999/xlink">
    <!-- Generator: Sketch 54.1 (76490) - https://sketchapp.com -->
    <title>Page 1</title>
    <desc>Created with Sketch.</desc>
    <defs>
        <polygon id="path-1" points="0 0.00865424431 60.5434331 0.00865424431 60.5434331 37.9213251 0 37.9213251"></polygon>
    </defs>
    <g id="9.11.-SUPPORT" stroke="none" stroke-width="1" fill="none" fill-rule="evenodd">
        <g id="Terms-&amp;-Privacy" transform="translate(-20.000000, -16.000000)">
            <g id="Group-6" transform="translate(20.000000, 14.000000)">
                <g id="Page-1" transform="translate(0.000000, 2.000000)">
                    <g id="Group-3" transform="translate(0.000000, 0.070021)">
                        <mask id="mask-2" fill="white">
                            <use xlink:href="#path-1"></use>
                        </mask>
                        <g id="Clip-2"></g>
                        <path d="M30.3526298,0.00865424431 C27.2679424,0.00865424431 21.5013048,0.0747412008 18.9590812,0.20510559 C16.5905718,0.326501035 14.428899,0.506902692 12.5342489,0.741354037 C10.0111433,1.05353623 8.14166915,1.33401242 6.61938758,1.76696066 C4.65196315,2.32649689 3.26043934,3.15266253 2.24033996,4.36701035 C1.69543727,5.0156853 1.27216605,5.75625259 0.946215735,6.63096066 C0.667470393,7.37908075 0.461184679,8.22703934 0.315793375,9.22345756 C0.0537271222,11.0188986 -7.86749482e-06,13.5091967 -7.86749482e-06,16.209793 C-7.86749482e-06,18.9068489 0.0537271222,21.3946294 0.315793375,23.189441 C0.461263354,24.1853872 0.667470393,25.0331097 0.94613706,25.7812298 C1.27193002,26.6557805 1.69488654,27.3963478 2.23931718,28.0451801 C3.25933789,29.2609441 4.65046832,30.0886046 6.61726335,30.6497143 C8.14442277,31.0854161 10.0135035,31.366207 12.5342489,31.6781532 C14.4100957,31.9102443 16.5731847,32.0880497 18.963487,32.2065342 C21.4803772,32.3313913 27.2455988,32.394646 30.3526298,32.394646 C33.4556484,32.394646 39.0562033,32.33147 41.5717561,32.2068489 C42.5052344,32.1606667 43.404017,32.1053582 44.2648783,32.0413168 L54.446282,37.9213251 L54.446282,30.4907122 C56.1401536,29.9358965 57.3741702,29.1518219 58.3017478,28.0472257 C58.8465718,27.398236 59.2700791,26.6575114 59.5962654,25.7827246 C59.8752468,25.0344472 60.0816899,24.1864099 60.2272385,23.1900704 C60.4896195,21.3950228 60.5434331,18.9070849 60.5434331,16.209793 C60.5434331,13.509118 60.4896981,11.0186625 60.2274745,9.22306418 C60.0819259,8.22656729 59.8755615,7.37837267 59.5967375,6.63025259 C59.2705511,5.75530849 58.8469652,5.01466253 58.3019052,4.36598758 C57.2813337,3.15156108 55.8892592,2.32539545 53.921048,1.76593789 C52.3977437,1.33291097 50.5271681,1.05267081 48.0029611,0.740645963 C46.1084683,0.506430642 43.9475035,0.326186335 41.580253,0.20494824 C39.0388161,0.0747412008 33.4352716,0.00865424431 30.3526298,0.00865424431" id="Fill-1" fill="#FF4338" mask="url(#mask-2)"></path>
                    </g>
                    <path d="M25.5485014,19.3623296 C25.2134248,19.6296671 25.0435656,19.9523917 25.0435656,20.3212986 C25.0435656,20.6245905 25.1360874,20.8686402 25.3186919,21.0469963 C25.5009818,21.2250377 25.7553379,21.3151992 26.0743648,21.3151992 C26.1882861,21.3151992 26.3126712,21.2993855 26.4440584,21.2680729 L26.4445304,21.2679942 C26.8384559,21.1789342 27.2113752,21.0234725 27.5529818,20.8059362 L27.5533752,20.8053855 C27.5538472,20.8049921 27.5540046,20.8045201 27.5543193,20.8039694 C27.5547126,20.80334 27.5550273,20.8028679 27.555106,20.8019238 L27.555342,20.8016091 L27.555342,18.4246816 L27.548576,18.4271205 C26.5556981,18.7818658 25.8827913,19.096487 25.5485014,19.3623296" id="Fill-4" fill="#FFFFFF"></path>
                    <path d="M51.502942,21.8995967 C51.502942,22.706487 50.8465569,23.3630294 50.039588,23.3630294 C49.2327764,23.3630294 48.5763126,22.706487 48.5763126,21.8995967 L48.5763126,14.9710874 C48.5763126,14.1641184 49.2327764,13.5076547 50.039588,13.5076547 C50.8465569,13.5076547 51.502942,14.1641184 51.502942,14.9710874 L51.502942,21.8995967 Z M50.039588,9.14276853 C50.8464783,9.14276853 51.5028634,9.79915362 51.5028634,10.6059652 C51.5028634,11.4128555 50.8464783,12.0692406 50.039588,12.0692406 C49.2327764,12.0692406 48.5763913,11.4128555 48.5763913,10.6059652 C48.5763913,9.79915362 49.2327764,9.14276853 50.039588,9.14276853 L50.039588,9.14276853 Z M45.4199524,23.3668058 C44.9722133,23.3668058 44.5551573,23.1659487 44.2757039,22.8156878 L44.2757039,22.8156091 L40.6843499,18.4498576 L40.6843499,21.9034518 C40.6843499,22.7104207 40.0278861,23.3668058 39.2210745,23.3668058 C38.4141056,23.3668058 37.7576418,22.7104207 37.7576418,21.9034518 L37.7576418,10.6104497 C37.7576418,9.80355942 38.4141056,9.14701698 39.2210745,9.14701698 C40.0278861,9.14701698 40.6843499,9.80355942 40.6843499,10.6104497 L40.6843499,18.4229507 L44.2757039,14.0594021 L44.2757039,14.0593234 C44.5551573,13.7111867 44.9712692,13.5115097 45.4172774,13.5115097 C46.2241677,13.5115097 46.8806315,14.1679735 46.8806315,14.9747851 C46.8806315,15.3113565 46.7696211,15.6277085 46.559559,15.8896174 L44.4594099,18.4415967 L46.553029,20.9773689 L46.5531077,20.9773689 C46.7660807,21.2377043 46.8833064,21.5665656 46.8833064,21.9034518 C46.8833064,22.7104207 46.2268427,23.3668058 45.4199524,23.3668058 L45.4199524,23.3668058 Z M35.5868427,21.8995967 C35.5868427,22.706487 34.9303789,23.3630294 34.1234886,23.3630294 C33.3165197,23.3630294 32.6601346,22.706487 32.6601346,21.8995967 L32.6601346,10.6065946 C32.6601346,9.79970435 33.3165197,9.1431619 34.1234886,9.1431619 C34.9303789,9.1431619 35.5868427,9.79970435 35.5868427,10.6065946 L35.5868427,21.8995967 Z M30.4656542,23.1782219 L28.9935673,23.1782219 C28.6853188,23.1782219 28.3858033,23.0904994 28.1276708,22.9244952 C27.8781925,22.7642344 27.6785155,22.538988 27.5495673,22.2728306 C26.8426729,22.97587 25.9045528,23.3630294 24.9073478,23.3630294 L24.8819358,23.3630294 C23.4360476,23.3630294 22.2596998,22.1866029 22.2596998,20.7407934 C22.2596998,19.780723 22.7835176,18.8984621 23.6267557,18.437899 L23.6270704,18.4376629 C23.6270704,18.4376629 23.6272277,18.4375843 23.6274638,18.4375056 L23.6274638,18.4375056 C24.079766,18.1936919 25.121265,17.808342 25.915646,17.5279445 C26.7467681,17.234487 27.4874928,16.9917747 27.5447681,16.9730501 L27.5447681,16.0714352 C27.5447681,15.4682344 27.0539938,14.9775387 26.450793,14.9775387 C26.0577329,14.9775387 25.7069213,15.1839031 25.5133023,15.505605 C25.5090538,15.5128431 25.5047267,15.5200812 25.500793,15.5272406 C25.5003209,15.5280273 25.4998489,15.5288141 25.4992981,15.5296795 C25.4212526,15.6702716 25.4030787,15.7990625 25.3477702,15.9534228 L25.3476128,15.9531081 C25.2648468,16.1966857 25.1137909,16.4153234 24.9120683,16.5788099 C24.6691988,16.775812 24.3629172,16.8843048 24.0496335,16.8843048 C23.294118,16.8843048 22.6795093,16.2697747 22.6792733,15.5143379 L22.6792733,15.5142592 L22.6792733,15.5141805 L22.6792733,15.5140232 L22.6792733,15.5139445 C22.6794306,15.1580977 22.7928799,14.8410377 23.0167101,14.5714186 C23.2209503,14.3254807 23.518499,14.1169921 23.9010166,13.9516961 C24.3697619,13.7491081 25.2095383,13.5076547 26.5480352,13.5076547 C27.8207598,13.5076547 28.7023126,13.7395884 29.3224286,14.2373648 C30.0960393,14.8586609 30.4721843,15.9035429 30.4721843,17.4318037 L30.4721843,20.8506236 C30.4721843,21.0979776 30.6179689,21.3230667 30.84353,21.4243213 L30.8436087,21.4243213 C31.1714472,21.5727023 31.3833188,21.9010128 31.3833188,22.260636 C31.3833188,22.7665946 30.9716915,23.1782219 30.4656542,23.1782219 L30.4656542,23.1782219 Z M18.6919482,21.0038037 C18.9005942,21.0038037 19.0995631,20.9387395 19.2672981,20.8156133 L19.2678489,20.8155346 C19.4536004,20.6844621 19.6723954,20.6152282 19.9004741,20.6152282 C20.5065859,20.6152282 20.9995631,21.1081267 20.9995631,21.7142385 C20.9995631,22.1031288 20.7907598,22.4666857 20.4545031,22.6635304 C20.4545031,22.6635304 20.4545031,22.6640025 20.4541884,22.6641598 C19.6825445,23.12134 18.7980807,23.3630294 17.8962298,23.3630294 C17.0671532,23.3630294 16.2877205,23.0401474 15.7015135,22.4539404 C15.1153064,21.8677333 14.7925031,21.0882219 14.7925031,20.259224 L14.7925031,15.8878865 L14.6152484,15.8878865 C14.009294,15.8878865 13.5163168,15.3949093 13.5163168,14.7888762 C13.5163168,14.5589093 13.5865735,14.3389342 13.7194555,14.1523172 L13.7194555,14.1520812 L15.7097743,11.2616422 L15.7100104,11.2614849 C15.9151159,10.9595304 16.254913,10.7792861 16.6195714,10.7792861 C17.2255259,10.7792861 17.7185818,11.272342 17.7185818,11.8782965 L17.7185818,13.6899445 L19.9004741,13.6899445 C20.5065859,13.6899445 20.9995631,14.1829217 20.9995631,14.7888762 C20.9995631,15.3949093 20.5065859,15.8878865 19.9004741,15.8878865 L17.7185818,15.8878865 L17.7185818,20.0305159 C17.7185818,20.5671578 18.1552277,21.0038037 18.6919482,21.0038037 L18.6919482,21.0038037 Z M12.1290414,21.8995967 C12.1290414,22.706487 11.4725776,23.3630294 10.6656874,23.3630294 C9.8587971,23.3630294 9.20225466,22.706487 9.20225466,21.8995967 L9.20225466,14.9710874 C9.20225466,14.1641184 9.8587971,13.5076547 10.6656874,13.5076547 C11.4725776,13.5076547 12.1290414,14.1641184 12.1290414,14.9710874 L12.1290414,21.8995967 Z M10.6656087,9.14276853 C11.4724203,9.14276853 12.1288054,9.79915362 12.1288054,10.6059652 C12.1288054,11.4128555 11.4724203,12.0692406 10.6656087,12.0692406 C9.85871843,12.0692406 9.20225466,11.4128555 9.20225466,10.6059652 C9.20225466,9.79915362 9.85871843,9.14276853 10.6656087,9.14276853 L10.6656087,9.14276853 Z M57.3284286,9.71646625 C57.2131698,8.92727785 57.0571573,8.2754559 56.8514224,7.72362981 C56.6413602,7.16000248 56.3894431,6.7143089 56.0588509,6.32085549 C55.7591781,5.96430062 55.4034886,5.66627992 54.9715631,5.40987826 C54.4722133,5.11366708 53.8665735,4.86639172 53.1200269,4.65412671 C51.7776749,4.27263188 50.0294389,4.0131619 47.6435424,3.7182882 C45.8185197,3.49272712 43.7280476,3.31861946 41.4303458,3.20092174 C38.9800932,3.07535652 33.4224948,3.00856149 30.352677,3.00856149 C27.2137039,3.00856149 21.5601222,3.0754352 19.1090828,3.20107909 C16.8104369,3.31885549 14.7194141,3.49319917 12.8939979,3.71899627 C10.5093602,4.014106 8.76191097,4.27365466 7.42081781,4.65507081 C6.67458592,4.86725714 6.06926087,5.11437516 5.57038302,5.41066501 C5.13869358,5.66698799 4.78316149,5.96493002 4.48364596,6.32148489 C4.15328986,6.71485963 3.90153002,7.16047453 3.69154658,7.72402319 C3.48604762,8.27569193 3.3300352,8.92751387 3.21485507,9.7166236 C2.96364596,11.4375594 2.92981573,14.0000812 2.92981573,16.2797665 C2.92981573,18.5565408 2.96364596,21.1159942 3.21485507,22.8359859 C3.33011387,23.6248596 3.48604762,24.2766029 3.69162526,24.8285077 C3.9016087,25.3922923 4.15328986,25.8383006 4.48372464,26.2319901 C4.78363354,26.5894104 5.13932298,26.8880605 5.57116977,27.1450128 C6.07004762,27.4417747 6.67513665,27.6895222 7.42105383,27.9023379 C8.76639545,28.2861143 10.5125859,28.545899 12.8939979,28.8405366 C14.6988799,29.0638948 16.7897453,29.2353275 19.1086108,29.3503503 C21.5361263,29.470723 27.198441,29.5348431 30.352677,29.5348431 C33.436499,29.5348431 39.0006273,29.4708017 41.4268054,29.350665 C42.3298364,29.305899 43.2116253,29.2516919 44.0476253,29.1895387 L44.9481387,29.122665 L45.7300104,29.5742592 L51.5164741,32.9159776 L51.5164741,30.5607644 L51.5164741,28.4375636 L53.5341718,27.7765366 C54.1542091,27.5733979 54.6637867,27.3426443 55.0922505,27.0708224 C55.4698116,26.8314932 55.7856915,26.5574683 56.0579068,26.2332489 C56.3888137,25.8392447 56.6408095,25.3930791 56.851029,24.8291371 C57.0568427,24.2772323 57.2128551,23.6254104 57.3282712,22.8363793 C57.5797164,21.1161516 57.6135466,18.5566195 57.6135466,16.2797665 C57.6135466,14.0000025 57.5797164,11.4374021 57.3284286,9.71646625 L57.3284286,9.71646625 Z" id="Fill-6" fill="#FFFFFF"></path>
                </g>
            </g>
        </g>
    </g>
</svg>